# xmcd CD database file
#
# Track frame offsets:
#	150
#	12313
#	26507
#	41362
#	53059
#	67083
#	81270
#	93392
#	107548
#	120830
#	132479
#	144231
#	157570
#	170622
#	183907
#	197832
#	209416
#	223263
#	235521
#	247401
#
# Disc length: 3431 seconds
#
# Revision: 6
# Processed by: cddbd v1.5.2PL0 Copyright (c) Steve Scherf et al.
# Submitted via: CDex 1.51
#
DISCID=110d6514
DTITLE=Louis Armstrong - it's Louis Armstrong - Vol.7
DYEAR=1900
DGENRE=Jazz
TTITLE0=Yours And Mine
TTITLE1=Red Cap
TTITLE2=She's The Daughter Of A Planter From Havana
TTITLE3=Alexander's Rag Time Band
TTITLE4=Cuban Pete
TTITLE5=I've Got A Heart Full Of Rhythm
TTITLE6=Sun Showers
TTITLE7=Once In A While
TTITLE8=On The Sunny Side Of The Street
TTITLE9=Satchel Mouth Swing
TTITLE10=Jubilee
TTITLE11=Struttin' With Some Barbecue
TTITLE12=The Trumpet Player's Lament
TTITLE13=I Double Dare You
TTITLE14=True Confession
TTITLE15=Let That Be A Lesson To You
TTITLE16=Sweet As A Song
TTITLE17=So Little Time
TTITLE18=Mexican Swing
TTITLE19=As Long As You Live, You'll Be Dead If You Die
EXTD=
EXTT0=
EXTT1=
EXTT2=
EXTT3=
EXTT4=
EXTT5=
EXTT6=
EXTT7=
EXTT8=
EXTT9=
EXTT10=
EXTT11=
EXTT12=
EXTT13=
EXTT14=
EXTT15=
EXTT16=
EXTT17=
EXTT18=
EXTT19=
PLAYORDER=
